<svg xmlns="http://www.w3.org/2000/svg" viewBox="0 0 800 600">
  <rect width="800" height="600" fill="#f4e3c1"/>
  <g transform="translate(100 130)">
    <rect width="600" height="380" rx="28" fill="#2b2b2b" stroke="#111" stroke-width="8"/>
    <rect x="40" y="36" width="520" height="220" rx="14" fill="#f2c94c" stroke="#111" stroke-width="6"/>
    <rect x="40" y="36" width="520" height="46" rx="14" fill="#e63946"/>
    <rect x="40" y="70" width="520" height="12" fill="#e63946"/>
    <line x1="70" y1="110" x2="530" y2="110" stroke="#8a6d1f" stroke-width="4"/>
    <rect x="150" y="130" width="300" height="100" rx="50" fill="#1b1b1b" stroke="#111" stroke-width="6"/>
    <rect x="250" y="150" width="100" height="60" fill="#5a4636" opacity="0.8"/>
    <circle cx="210" cy="180" r="34" fill="#f4f4f4" stroke="#111" stroke-width="5"/>
    <circle cx="390" cy="180" r="34" fill="#f4f4f4" stroke="#111" stroke-width="5"/>
    <g fill="#111">
      <rect x="205" y="150" width="10" height="60"/><rect x="180" y="175" width="60" height="10"/>
      <rect x="385" y="150" width="10" height="60"/><rect x="360" y="175" width="60" height="10"/>
    </g>
    <path d="M140 380 L170 290 H430 L460 380 Z" fill="#3a3a3a" stroke="#111" stroke-width="6"/>
    <g fill="#111"><circle cx="220" cy="340" r="12"/><circle cx="380" cy="340" r="12"/></g>
    <g fill="#777"><circle cx="30" cy="30" r="9"/><circle cx="570" cy="30" r="9"/><circle cx="30" cy="350" r="9"/><circle cx="570" cy="350" r="9"/></g>
  </g>
</svg>
